<svg width="0" height="0" class="hidden">
  <symbol xmlns="http://www.w3.org/2000/svg" viewBox="0 0 102 75" id="icon10">
    <path d="M102 .146C89.123 8.828 87.752 15.13 86.636 17.057c-1.068 1.976-1.864 9.768-3.713 13.542-1.865 3.823-8.638 6.836-10.535 8.1-1.865 1.263-4.51 6.171-6.678 10.4-17.228-.713-26.68 6.284-41.31 15.161 4.686-1.571 6.901-2.705 6.901-2.705 15.013-5.831 22.201-11.064 44.8-7.97.176 0 .303.097.447.13a1.28 1.28 0 01.494 1.75l-8.59 15.518a1.905 1.905 0 01-2.088.988c-20.209-3.856-36.162 2.802-50.825 3.013C3.841 75.162 0 69.557 0 69.298c0-.178.096-.275.27-.275 0 0 6.105 0 16.433-2.479 11.73-22.726 22.185-30.68 33.564-30.68 0 0 11.427 0 14.44 10.027 3.633-6.431 4.51-7.97 4.51-7.97.844-1.523 5.578-12.505 13.77-22.905C91.194 4.65 97.394 2.073 102 .146z"></path>
  </symbol>
  <symbol xmlns="http://www.w3.org/2000/svg" viewBox="0 0 103 43" id="icon11">
    <g>
      <path d="M26.555 3.793l-6.968 1.464-.032 22.654c0 4.184 3.186 6.889 7.419 6.889 2.35 0 4.072-.43 5.021-.939v-5.377c-.917.366-5.423 1.67-5.423-2.498V15.932h5.423V9.918h-5.423l-.017-6.125zm14.34 8.21l-.434-2.085h-6.18v24.373h7.129V17.889c1.69-2.196 4.539-1.766 5.456-1.48V9.92c-.966-.335-4.297-.955-5.971 2.083zM55.75.5l-7.178 1.511v5.76l7.178-1.512V.5zM7.227 17.093c0-1.098.933-1.527 2.43-1.543 2.173 0 4.94.652 7.113 1.814v-6.65c-2.365-.923-4.731-1.289-7.097-1.289-5.794 0-9.656 2.99-9.656 7.986 0 7.828 10.863 6.555 10.863 9.928 0 1.304-1.142 1.734-2.736 1.734-2.366 0-5.423-.97-7.821-2.26v6.364a20.003 20.003 0 007.805 1.607c5.939 0 10.027-2.514 10.027-7.604 0-8.416-10.928-6.905-10.928-10.087zM103 22.391c0-7.239-3.54-12.95-10.332-12.95-6.792 0-10.928 5.711-10.928 12.902 0 8.512 4.876 12.441 11.829 12.441 3.412 0 5.97-.764 7.918-1.83v-5.313c-1.947.97-4.184 1.559-7.017 1.559-2.784 0-5.23-.97-5.552-4.28h13.985c.032-.366.097-1.845.097-2.53zm-14.147-2.673c0-3.182 1.98-4.518 3.766-4.518 1.755 0 3.621 1.336 3.621 4.518h-7.387zM70.684 9.441c-2.8 0-4.602 1.304-5.6 2.211l-.37-1.75H58.42v32.582l7.146-1.495.016-7.987c1.03.748 2.559 1.782 5.053 1.782 5.118 0 9.785-3.69 9.785-12.663.016-8.21-4.715-12.68-9.736-12.68zM68.98 28.93c-1.674 0-2.672-.605-3.364-1.337l-.048-10.5c.74-.811 1.77-1.4 3.412-1.4 2.607 0 4.41 2.896 4.41 6.586.015 3.803-1.755 6.65-4.41 6.65zm-20.391 5.36h7.178V9.919h-7.178v24.373z"></path>
    </g>
  </symbol>
  <symbol xmlns="http://www.w3.org/2000/svg" viewBox="0 0 105 63" id="icon12">
    <g>
      <path d="M29.887 22.989c-.117 3.638 1.717 5.249 1.763 6.272a1.304 1.304 0 01-.665 1.007l-2.073 1.44a1.735 1.735 0 01-.912.308c-.07-.004-1.327.294-3.318-4.114a12.718 12.718 0 01-4.518 3.531 12.826 12.826 0 01-5.624 1.2c-2.637.142-9.785-1.485-9.417-9.03-.257-6.148 5.518-9.967 11.49-9.645 1.15.004 3.5.06 7.612 1.008v-2.51c.436-4.25-2.38-7.547-7.259-7.052-.388.001-3.142-.08-7.425 1.624-1.193.543-1.345.453-1.742.453-1.2 0-.706-3.45-.476-3.887.844-1.028 5.81-2.948 10.682-2.92a12.522 12.522 0 019.021 2.775 11.268 11.268 0 012.3 3.915c.492 1.445.683 2.974.563 4.495l-.002 11.13zm-14 5.202c5.254-.075 7.478-3.207 7.985-4.894.399-1.614.332-2.636.332-4.4-1.566-.374-3.821-.78-6.408-.783-2.454-.183-6.937.904-6.762 5.181-.2 2.697 1.802 5.044 4.854 4.896zm27.689 3.703c-1.274.115-1.867-.781-2.054-1.666L33.454 3.782a6.092 6.092 0 01-.31-1.379.736.736 0 01.136-.55.748.748 0 01.489-.293c.038-.006-.346 0 3.604 0 1.422-.141 1.886.969 2.033 1.666l5.786 22.62 5.372-22.62c.086-.517.476-1.778 2.074-1.645h2.78c.35-.029 1.8-.08 2.053 1.666l5.414 22.91 5.973-22.91c.078-.35.44-1.827 2.054-1.666h3.195c.137-.02.996-.13.85 1.378-.07.297.552-1.712-8.545 27.29-.186.885-.781 1.781-2.054 1.665H61.33c-1.772.185-2.026-1.551-2.054-1.726L53.904 8.162l-5.31 22.003c-.026.175-.28 1.912-2.054 1.727h-2.964v.002zm44.302.904c-.953.002-5.495-.048-9.292-1.974a2.07 2.07 0 01-.926-.766 2.044 2.044 0 01-.34-1.147v-1.727c0-1.357 1.005-1.108 1.43-.946 1.627.652 2.67 1.147 4.668 1.542 5.937 1.21 8.548-.37 9.188-.72 2.13-1.254 2.299-4.124.85-5.613-1.697-1.412-2.507-1.465-8.606-3.373-.752-.208-7.08-2.186-7.094-8.41C77.657 5.128 81.814.64 89.018.677c2.052-.002 7.522.663 9.002 2.509.219.335.327.73.311 1.13V5.94c0 .713-.262 1.07-.789 1.07-1.249-.138-3.465-1.794-7.963-1.727-1.117-.057-6.462.147-6.223 4.011-.07 3.045 4.311 4.188 4.812 4.32 5.906 1.761 7.88 2.054 10.225 4.75 2.776 3.574 1.28 7.758.704 8.905-3.09 6.022-11.083 5.532-11.22 5.529zM94.39 49.64c-11.345 8.308-27.813 12.73-41.874 12.73-18.973.124-37.306-6.793-51.396-19.392-1.058-.946-.124-2.242 1.162-1.521a103.933 103.933 0 0051.332 13.511A102.843 102.843 0 0092.75 47.01c1.909-.803 3.527 1.253 1.64 2.63zm4.728-5.347c-1.451-1.85-9.603-.865-13.252-.432-1.1.123-1.287-.823-.29-1.522 6.49-4.524 17.152-3.228 18.376-1.707 1.223 1.521-.332 12.112-6.408 17.172-.933.782-1.826.37-1.411-.658 1.367-3.414 4.437-11.002 2.985-12.853z"></path>
    </g>
  </symbol>
  <symbol xmlns="http://www.w3.org/2000/svg" viewBox="0 0 77 73" id="icon13">
    <g>
      <path d="M67.926 28.161c-2.395 0-4.503.995-6.051 2.55-5.7-3.96-13.38-6.51-21.89-6.783l4.422-20.012L58.49 7.09c0 3.463 2.81 6.286 6.259 6.286 3.512 0 6.338-2.903 6.338-6.367 0-3.463-2.81-6.366-6.338-6.366-2.46 0-4.583 1.492-5.636 3.528L43.56.708c-.782-.208-1.548.353-1.756 1.139L36.95 23.912c-8.446.353-16.046 2.902-21.762 6.863a8.468 8.468 0 00-6.131-2.614c-8.877 0-11.783 11.963-3.656 16.052-.288 1.267-.415 2.614-.415 3.96 0 13.439 15.072 24.327 33.577 24.327 18.585 0 33.657-10.888 33.657-24.326 0-1.347-.144-2.758-.495-4.025 7.967-4.105 5.03-15.988-3.8-15.988zm-49.64 16.902c0-3.528 2.81-6.366 6.34-6.366 3.448 0 6.258 2.822 6.258 6.366 0 3.464-2.81 6.286-6.259 6.286-3.512.016-6.338-2.822-6.338-6.286zm34.216 14.993c-5.811 5.837-22.209 5.837-28.02 0-.64-.56-.64-1.555 0-2.197.558-.56 1.548-.56 2.107 0 4.439 4.57 19.16 4.65 23.79 0 .559-.56 1.549-.56 2.108 0 .654.642.654 1.636.015 2.197zm-.127-8.691c-3.449 0-6.259-2.822-6.259-6.286 0-3.528 2.81-6.366 6.259-6.366a6.327 6.327 0 016.338 6.366c-.016 3.448-2.826 6.286-6.338 6.286z" ></path>
    </g>
  </symbol>
  <symbol xmlns="http://www.w3.org/2000/svg" viewBox="0 0 73 72" id="icon14">
    <g>
      <path d="M56.93 38.995a3.785 3.785 0 00-5.357 0l-6.039 6.038c-2.8-.833-8.024-2.727-11.335-6.038-3.31-3.311-5.205-8.536-6.038-11.335l6.038-6.039a3.784 3.784 0 000-5.357L19.046 1.111a3.784 3.784 0 00-5.357 0L3.415 11.385a7.571 7.571 0 00-2.22 5.436c.087 5.395 1.515 24.132 16.282 38.9 14.767 14.766 33.505 16.19 38.903 16.281h.106c2 0 3.891-.788 5.323-2.22l10.274-10.274a3.785 3.785 0 000-5.357L56.93 38.995zm-.482 25.427c-4.727-.08-20.904-1.348-33.614-14.062C10.082 37.608 8.847 21.375 8.771 16.742l7.596-7.596 9.797 9.797-4.898 4.898a3.789 3.789 0 00-1.03 3.455c.09.436 2.314 10.767 8.603 17.056 6.288 6.288 16.62 8.512 17.055 8.603a3.754 3.754 0 003.455-1.027l4.902-4.898 9.797 9.797-7.6 7.595z"></path>
    </g>
  </symbol>
  <symbol xmlns="http://www.w3.org/2000/svg" viewBox="0 0 73 72" id="icon15">
    <path d="M29.5 42C37.497 42 44 35.721 44 28s-6.503-14-14.5-14S15 20.279 15 28s6.503 14 14.5 14zm0-21c3.998 0 7.25 3.14 7.25 7s-3.252 7-7.25 7-7.25-3.14-7.25-7 3.252-7 7.25-7z" ></path>
    <path d="M27.434 70.34a3.564 3.564 0 004.132 0C32.65 69.577 58.103 51.262 58 28.4 58 12.741 45.214 0 29.5 0S1 12.741 1 28.383C.897 51.263 26.35 69.577 27.434 70.34zM29.5 7.1c11.788 0 21.375 9.553 21.375 21.318C50.95 44.173 35.243 58.32 29.5 62.96 23.76 58.316 8.05 44.166 8.125 28.4c0-11.747 9.587-21.3 21.375-21.3z" ></path>
  </symbol>
  <symbol xmlns="http://www.w3.org/2000/svg" viewBox="0 0 73 72" id="icon16">
    <g>
      <path d="M70.348 2.162a2.853 2.853 0 00-1.417-.804 2.78 2.78 0 00-1.611.114L3.862 25.471c-.548.216-1.019.6-1.351 1.1A3.084 3.084 0 002 28.277c0 .608.178 1.203.51 1.704.333.5.804.885 1.352 1.1l27.69 11.52L42.63 71.398a2.983 2.983 0 001.026 1.35 2.81 2.81 0 001.57.54 2.811 2.811 0 001.622-.561 2.99 2.99 0 001.032-1.419L70.954 5.312c.197-.53.244-1.109.137-1.667a3.043 3.043 0 00-.743-1.483zM45.225 61.889L37.177 40.89l13.817-14.37-4.067-4.229-13.932 14.49-20.076-8.49L63.483 9.3 45.225 61.89z"></path>
    </g>
  </symbol>
  <symbol xmlns="http://www.w3.org/2000/svg" viewBox="0 0 104 24" id="logo">
    <path d="M.992 2.2H4.88V19H.992V2.2zm15.559 3.696c1.6 0 2.888.48 3.864 1.44.992.96 1.488 2.384 1.488 4.272V19h-3.744v-6.816c0-1.024-.224-1.784-.672-2.28-.448-.512-1.096-.768-1.944-.768-.944 0-1.696.296-2.256.888-.56.576-.84 1.44-.84 2.592V19H8.703V6.088h3.576V7.6a4.847 4.847 0 011.848-1.248c.736-.304 1.544-.456 2.424-.456zm22.138-4.704V19h-3.576v-1.488c-.928 1.12-2.272 1.68-4.032 1.68-1.216 0-2.32-.272-3.312-.816a5.865 5.865 0 01-2.304-2.328c-.56-1.008-.84-2.176-.84-3.504 0-1.328.28-2.496.84-3.504a5.865 5.865 0 012.304-2.328c.992-.544 2.096-.816 3.312-.816 1.648 0 2.936.52 3.864 1.56V1.192h3.744zM31.73 16.12c.944 0 1.728-.32 2.352-.96.624-.656.936-1.528.936-2.616s-.312-1.952-.936-2.592c-.624-.656-1.408-.984-2.352-.984-.96 0-1.752.328-2.376.984-.624.64-.936 1.504-.936 2.592s.312 1.96.936 2.616c.624.64 1.416.96 2.376.96zM42.255 6.088h3.744V19h-3.744V6.088zm1.872-1.8c-.688 0-1.248-.2-1.68-.6a1.946 1.946 0 01-.648-1.488c0-.592.216-1.088.648-1.488.432-.4.992-.6 1.68-.6s1.248.192 1.68.576c.432.384.648.864.648 1.44 0 .624-.216 1.144-.648 1.56-.432.4-.992.6-1.68.6zm11.686 14.904c-1.376 0-2.616-.28-3.72-.84-1.088-.576-1.944-1.368-2.568-2.376-.608-1.008-.912-2.152-.912-3.432 0-1.28.304-2.424.912-3.432a6.4 6.4 0 012.568-2.352c1.104-.576 2.344-.864 3.72-.864 1.36 0 2.544.288 3.552.864a4.98 4.98 0 012.232 2.424l-2.904 1.56c-.672-1.184-1.64-1.776-2.904-1.776-.976 0-1.784.32-2.424.96-.64.64-.96 1.512-.96 2.616s.32 1.976.96 2.616c.64.64 1.448.96 2.424.96 1.28 0 2.248-.592 2.904-1.776l2.904 1.584c-.464 1.024-1.208 1.824-2.232 2.4-1.008.576-2.192.864-3.552.864zm14.02 0c-1.36 0-2.584-.28-3.672-.84a6.439 6.439 0 01-2.52-2.376c-.608-1.008-.912-2.152-.912-3.432 0-1.28.304-2.424.912-3.432a6.27 6.27 0 012.52-2.352c1.088-.576 2.312-.864 3.672-.864 1.36 0 2.576.288 3.648.864A6.27 6.27 0 0176 9.112c.608 1.008.912 2.152.912 3.432 0 1.28-.304 2.424-.912 3.432a6.439 6.439 0 01-2.52 2.376c-1.072.56-2.288.84-3.648.84zm0-3.072c.96 0 1.744-.32 2.352-.96.624-.656.936-1.528.936-2.616s-.312-1.952-.936-2.592c-.608-.656-1.392-.984-2.352-.984s-1.752.328-2.376.984c-.624.64-.936 1.504-.936 2.592s.312 1.96.936 2.616c.624.64 1.416.96 2.376.96zM83.09 7.792a4.186 4.186 0 011.8-1.416c.768-.32 1.648-.48 2.64-.48v3.456a13.512 13.512 0 00-.84-.048c-1.072 0-1.912.304-2.52.912-.608.592-.912 1.488-.912 2.688V19h-3.743V6.088h3.575v1.704zm14.4-1.896c1.2 0 2.288.28 3.264.84a5.821 5.821 0 012.328 2.328c.56.992.84 2.152.84 3.48 0 1.328-.28 2.496-.84 3.504a6.028 6.028 0 01-2.328 2.328c-.976.544-2.064.816-3.264.816-1.648 0-2.944-.52-3.888-1.56v6.024h-3.744V6.088h3.576v1.488c.928-1.12 2.28-1.68 4.056-1.68zm-.648 10.224c.96 0 1.744-.32 2.352-.96.624-.656.936-1.528.936-2.616s-.312-1.952-.936-2.592c-.608-.656-1.392-.984-2.352-.984s-1.752.328-2.376.984c-.608.64-.912 1.504-.912 2.592s.304 1.96.912 2.616c.624.64 1.416.96 2.376.96z"></path>
  </symbol>
  <symbol xmlns="http://www.w3.org/2000/svg" viewBox="0 0 48 48" id="icon1">
    <g>
      <path d="M42.589 12.525h-5.07v-5.07a3.38 3.38 0 00-3.38-3.379H13.861a3.38 3.38 0 00-3.38 3.38v5.07h-5.07a5.07 5.07 0 00-5.07 5.07v23.657a3.38 3.38 0 003.38 3.38H44.28a3.38 3.38 0 003.38-3.38V17.595a5.07 5.07 0 00-5.07-5.07zM13.86 7.455h20.278v5.07H13.861v-5.07zm30.418 33.798H3.721V26.044H17.24v8.45h13.518v-8.45h13.52v15.21zM20.62 26.044h6.76v5.07h-6.76v-5.07zm-16.898-3.38v-5.069a1.69 1.69 0 011.69-1.69h37.177a1.69 1.69 0 011.69 1.69v5.07H3.721z" ></path>
    </g>
  </symbol>
  <symbol xmlns="http://www.w3.org/2000/svg" viewBox="0 0 48 48" id="icon2">
    <g>
      <path opacity=".15" d="M43.65 13.75H4.35c-.018 0-.03.012-.03.03v5.405c0 3.544 2.94 6.419 6.558 6.419a6.593 6.593 0 005.706-3.242.993.993 0 011.716 0 6.576 6.576 0 005.7 3.242c2.448 0 4.584-1.31 5.706-3.254a.97.97 0 01.834-.48h.036c.348 0 .66.183.834.48a6.586 6.586 0 005.712 3.254c3.618 0 6.558-2.875 6.558-6.42V13.78c0-.018-.012-.03-.03-.03z"></path>
      <path d="M46.2 9.489V1.897C46.2.847 45.342 0 44.28 0H3.72C2.658 0 1.8.848 1.8 1.897v7.592c-1.002.06-1.8.883-1.8 1.89v7.806a10.38 10.38 0 00.864 4.173c.258.604.576 1.173.936 1.712v20.448a1.91 1.91 0 001.92 1.897h40.56c1.062 0 1.92-.848 1.92-1.897V25.07c.366-.54.679-1.114.936-1.712.57-1.322.864-2.727.864-4.173V11.38a1.905 1.905 0 00-1.8-1.891zM6.12 4.267h35.76v5.216H6.12V4.267zm21.72 38.886h-7.68v-6.17h7.68v6.17zm14.064 0H31.68v-8.066a1.906 1.906 0 00-1.92-1.897H18.24c-1.062 0-1.92.848-1.92 1.897v8.066H6.12V28.8c.174.082.354.165.54.236a10.93 10.93 0 004.224.836 11.004 11.004 0 006.546-2.146.039.039 0 01.036 0c.716.53 1.496.97 2.322 1.31a10.93 10.93 0 004.224.836 11.004 11.004 0 006.546-2.146.039.039 0 01.036 0c.716.53 1.496.97 2.322 1.31a10.93 10.93 0 004.224.836c1.464 0 2.88-.278 4.224-.835.18-.078.36-.155.54-.238v14.355zm1.776-23.968c0 3.544-2.94 6.419-6.558 6.419a6.586 6.586 0 01-5.712-3.254.963.963 0 00-.834-.48h-.036a.97.97 0 00-.834.48 6.515 6.515 0 01-2.409 2.387 6.617 6.617 0 01-3.297.867 6.576 6.576 0 01-5.7-3.242.993.993 0 00-1.716 0 6.539 6.539 0 01-2.413 2.377 6.641 6.641 0 01-3.293.865c-3.618 0-6.558-2.875-6.558-6.419V13.78c0-.018.012-.03.03-.03h39.3c.018 0 .03.012.03.03v5.405z"></path>
    </g>
  </symbol>
  <symbol xmlns="http://www.w3.org/2000/svg" viewBox="0 0 48 48" id="icon3">
    <g>
      <path d="M29.142 13.624H41.14v3.445H29.142v-3.445zm0 8.613H41.14v3.446H29.142v-3.446zm0 8.613H41.14v3.446H29.142V30.85z"></path>
      <path d="M44.568 5.011H3.432a3.423 3.423 0 00-2.423 1.01A3.458 3.458 0 00.004 8.457v31.007c.001.914.363 1.79 1.005 2.436a3.423 3.423 0 002.423 1.01h41.136a3.424 3.424 0 002.422-1.01 3.459 3.459 0 001.006-2.436V8.457a3.462 3.462 0 00-1.005-2.436 3.423 3.423 0 00-2.423-1.01zM3.432 8.457h18.854v31.007H3.432V8.457zm22.282 31.007V8.457h18.854l.003 31.007H25.714z"></path>
    </g>
  </symbol>
  <symbol xmlns="http://www.w3.org/2000/svg" viewBox="0 0 49 48" id="icon4">
    <g>
      <g>
        <path d="M24.84 22.802c4.305 0 7.652-3.495 7.652-7.785s-3.507-7.626-7.81-7.626c-4.305 0-7.653 3.495-7.653 7.626 0 4.29 3.507 7.785 7.812 7.785zm-.159-12.233c.16 0 .16 0 0 0 2.55 0 4.623 2.065 4.623 4.607 0 2.542-2.072 4.449-4.623 4.449a4.448 4.448 0 01-4.463-4.449c0-2.542 2.072-4.607 4.463-4.607zm23.753 11.28c-3.029-2.701-7.014-4.131-11.16-3.972H36c-.32 1.27-.797 2.383-1.435 3.336.956-.159 1.753-.159 2.71-.159 3.029-.159 6.058.795 8.449 2.542v11.44h3.188v-12.71l-.478-.477zM33.608 7.708c.798-1.906 3.03-2.86 5.102-2.065 1.913.794 2.87 3.019 2.072 5.084-.638 1.43-2.072 2.383-3.507 2.383-.319 0-.797 0-1.116-.159.16.795.16 1.59.16 2.225v.953c.318 0 .637.159.956.159 3.985 0 7.174-3.178 7.174-6.99 0-3.973-3.189-7.15-7.015-7.15-2.55 0-4.782 1.27-6.057 3.495.797.476 1.594 1.112 2.231 2.065zM15.435 21.372c-.638-.953-1.116-2.065-1.435-3.336h-1.275a16.438 16.438 0 00-11.159 3.813l-.478.477v12.71h3.188v-11.44c2.55-1.747 5.42-2.7 8.45-2.541.956 0 1.912.159 2.71.317zm-2.71-5.242c.319 0 .638 0 .957-.16v-.953c0-.794 0-1.588.159-2.224-.319.159-.797.159-1.116.159-2.072 0-3.826-1.748-3.826-3.813 0-2.066 1.754-3.813 3.826-3.813 1.594 0 3.029.953 3.667 2.383.637-.795 1.594-1.589 2.39-2.224C16.71 2.148 12.407 1.035 9.06 3.1c-3.35 2.067-4.465 6.357-2.393 9.693 1.276 2.066 3.508 3.337 6.058 3.337zm25.188 15.252l-.32-.477c-3.188-3.495-7.651-5.56-12.434-5.402-4.782-.159-9.405 1.907-12.593 5.402l-.32.477v12.075c0 1.43 1.117 2.7 2.71 2.7h20.406c1.435 0 2.71-1.27 2.71-2.7V31.382h-.16zM34.724 42.98H15.435V32.494c2.55-2.542 6.058-3.813 9.725-3.813 3.507-.16 7.014 1.27 9.564 3.813V42.98z"></path>
      </g>
    </g>
  </symbol>
  <symbol xmlns="http://www.w3.org/2000/svg" viewBox="0 0 49 48" id="icon5">
    <g>
      <path d="M44.15 22.282a4.712 4.712 0 00-1.683.324l-5.74-4.785a6.214 6.214 0 00.242-1.633c0-3.378-2.667-6.093-5.985-6.093-3.317 0-5.984 2.715-5.984 6.093 0 .966.24 1.865.627 2.674l-6.963 8.38a4.853 4.853 0 00-.845-.085c-.429 0-.833.073-1.226.18l-6.135-6.247c.107-.397.18-.81.18-1.245 0-2.701-2.136-4.875-4.788-4.875-2.653 0-4.788 2.174-4.788 4.874 0 2.701 2.135 4.875 4.788 4.875a4.62 4.62 0 001.225-.18l6.136 6.247a4.724 4.724 0 00-.18 1.246c0 2.7 2.135 4.875 4.788 4.875 2.652 0 4.787-2.175 4.787-4.875a4.95 4.95 0 00-.294-1.636l6.973-8.39c.543.161 1.106.276 1.7.276a5.851 5.851 0 002.712-.685l5.742 4.785a5.14 5.14 0 00-.076.775c0 2.7 2.135 4.875 4.787 4.875 2.653 0 4.788-2.174 4.788-4.875 0-2.7-2.136-4.875-4.788-4.875z"></path>
    </g>
  </symbol>
  <symbol xmlns="http://www.w3.org/2000/svg" viewBox="0 0 49 48" id="icon6">
    <g>
      <path d="M16.064 33.995c-.81-.815-.388-.585-2.344-1.111-.888-.24-1.668-.699-2.374-1.249L7.112 42.064a1.499 1.499 0 001.44 2.065l4.918-.188 3.382 3.589a1.49 1.49 0 002.467-.465L24.177 35.1c-1.012.566-2.135.898-3.296.898-1.82 0-3.53-.711-4.817-2.003zm26.664 8.069l-4.235-10.429c-.706.551-1.486 1.01-2.373 1.249-1.967.529-1.536.298-2.345 1.11a6.756 6.756 0 01-4.818 2.004c-1.16 0-2.284-.332-3.295-.898l4.858 11.965a1.49 1.49 0 002.466.465l3.384-3.59 4.918.19a1.5 1.5 0 001.44-2.066zm-11.182-10.19c1.426-1.458 1.59-1.333 3.62-1.889a3.802 3.802 0 002.658-2.717c.698-2.662.517-2.34 2.422-4.289.95-.97 1.32-2.385.972-3.71-.697-2.661-.698-2.29 0-4.953a3.901 3.901 0 00-.972-3.71c-1.905-1.949-1.724-1.628-2.422-4.29A3.802 3.802 0 0035.167 3.6c-2.602-.713-2.289-.527-4.196-2.476a3.703 3.703 0 00-3.63-.994c-2.6.712-2.238.713-4.843 0a3.7 3.7 0 00-3.63.994c-1.905 1.948-1.591 1.763-4.194 2.476a3.802 3.802 0 00-2.658 2.717c-.697 2.662-.517 2.341-2.422 4.29a3.899 3.899 0 00-.972 3.71c.697 2.659.698 2.287 0 4.952a3.903 3.903 0 00.972 3.711c1.905 1.948 1.724 1.627 2.422 4.29a3.802 3.802 0 002.658 2.716c2.088.572 2.244.482 3.619 1.888a3.697 3.697 0 004.642.546 3.692 3.692 0 013.97 0 3.696 3.696 0 004.641-.546zm-15.431-15.38c0-4.971 3.942-9.001 8.805-9.001 4.862 0 8.805 4.03 8.805 9.002 0 4.971-3.943 9.001-8.805 9.001-4.863 0-8.806-4.03-8.806-9.001z"></path>
    </g>
  </symbol>
  <symbol xmlns="http://www.w3.org/2000/svg" viewBox="0 0 32 32" id="icon7">
    <g>
      <path d="M29.815 10.365l-1.998 3.006a13 13 0 01-.358 12.317H4.937A13 13 0 0122.015 7.57l3.007-2a16.25 16.25 0 00-22.88 21.743 3.25 3.25 0 002.795 1.625h22.506a3.25 3.25 0 002.827-1.625 16.25 16.25 0 00-.438-16.965l-.017.017zM13.907 21.48a3.25 3.25 0 004.598 0l9.198-13.797-13.796 9.198a3.25 3.25 0 000 4.599z"></path>
    </g>
  </symbol>
  <symbol xmlns="http://www.w3.org/2000/svg" viewBox="0 0 103 35" id="icon8">
    <g>
      <path d="M23.255 32.425l6.164.128a43.037 43.037 0 01-6.164-2.682v2.554zm9.287-.846v.846l-3.123.128c5.875 1.995 11.25 2.266 15.241 1.149-3.203.032-7.37-.415-12.118-2.123zM98.349 13.19c2.559 0 4.651-2.059 4.651-4.613 0-2.554-2.076-3.91-4.651-3.91-2.56 0-4.651 1.372-4.651 3.91 0 2.538 2.076 4.613 4.65 4.613zm-4.667 19.235H103V14.786h-9.318v17.639zm-11.861 0h9.318V1.25L81.82 5.608v26.817zm-4.99-19.06c-2.929-2.904-8.11-2.729-8.11-2.729s-5.199-.175-8.112 2.73c-2.93 2.905-2.704 5.411-2.704 8.396 0 2.985-.225 5.475 2.704 8.38 2.93 2.905 8.111 2.73 8.111 2.73s5.198.175 8.112-2.73c2.929-2.905 2.703-5.395 2.703-8.38-.016-3.001.21-5.507-2.703-8.396zm-6.405 11.478c0 .574-.29 1.995-1.722 1.995s-1.722-1.42-1.722-1.995v-6.45c0-1.388 1.175-1.739 1.722-1.739.547 0 1.722.335 1.722 1.74v6.449zM53.335 13.366c-2.93-2.905-8.112-2.73-8.112-2.73s-5.182-.175-8.11 2.73a9.581 9.581 0 00-.854.957C30.111 9.6 24.591 6.901 19.827 4.57V1.266l-3.62 1.692C7.45-.569 1.882.053.546 2.974c0 0-4.007 5.236 9.946 17.687v11.764h9.318V27.86a47.773 47.773 0 01-3.122-2.171 99.376 99.376 0 01-6.18-5.012v-4.949c2.108 2.347 4.909 5.012 8.594 8.03l.724.574v-4.757c0-1.101.274-2.905 1.739-2.905 1.464 0 1.706 1.101 1.706 2.394v7.774a43.04 43.04 0 009.286 4.725V16.574c0-2.985-2.157-5.97-6.535-5.97a7.13 7.13 0 00-6.196 3.496V5.432c6.744 3.337 13.503 7.423 16.078 9.306-1.642 2.331-1.497 4.486-1.497 6.976 0 2.985-.225 5.475 2.704 8.38 2.93 2.905 8.111 2.73 8.111 2.73s5.199.175 8.112-2.73c2.929-2.905 2.687-5.395 2.687-8.38 0-2.953.242-5.46-2.687-8.348zM10.493 5.608v10.104c-7.838-8.7-6.26-12.131-5.665-12.626 2.173-1.82 6.035-1.277 10.364.335l-4.699 2.187zm36.452 19.235c0 .574-.29 1.995-1.722 1.995s-1.722-1.42-1.722-1.995v-6.45c0-1.388 1.175-1.739 1.722-1.739.548 0 1.722.335 1.722 1.74v6.449z" ></path>
    </g>

  </symbol>
  <symbol xmlns="http://www.w3.org/2000/svg" viewBox="0 0 84 59" id="icon9">
    <g>
      <path d="M.5.995h12.612V35.01c0 5.395 2.432 8.605 4.41 9.942-2.06 1.809-8.3 3.406-13.002-.456C1.764 42.213.5 38.416.5 34.879V.995zm78.769 28.278v-3.586h3.858V13.17h-4.23C77.258 5.624 70.596.017 62.636.017c-9.176 0-16.65 7.498-16.65 16.739v29.206c2.595.375 5.74-.049 8.382-2.281 2.772-2.282 4.02-6.063 4.02-9.616v-1.092h6.29V20.456h-6.29v-3.798c0-5.64 8.462-5.64 8.462 0v12.566c0 9.225 7.457 16.738 16.649 16.738V33.494a4.228 4.228 0 01-4.231-4.221zM31.56 13.137v18.418c0 2.51-3.858 2.51-3.858 0V13.137h-12.45v21.628c0 3.88 1.297 8.801 7.295 10.415 5.998 1.597 9.435-1.728 9.435-1.728-.34 2.184-2.35 3.798-5.658 4.124-2.513.26-5.706-.587-7.295-1.271v11.457c4.069 1.223 8.349 1.598 12.58.766 7.635-1.483 12.45-7.888 12.45-16.428V13.056H31.56v.082z" ></path>
    </g>
  </symbol>
</svg>